Coordinates
version=1
nRows=11
nColumns=36
inDegrees=yes

Units are S.I. units (second, meters, Newtons, ...)
If the header above contains a line with 'inDegrees', this indicates whether rotational values are in degrees (yes) or radians (no).

endheader
time	pelvis_tilt	pelvis_list	pelvis_rotation	pelvis_tx	pelvis_ty	pelvis_tz	hip_flexion_r	hip_adduction_r	hip_rotation_r	knee_angle_r	knee_angle_r_beta	ankle_angle_r	subtalar_angle_r	mtp_angle_r	hip_flexion_l	hip_adduction_l	hip_rotation_l	knee_angle_l	knee_angle_l_beta	ankle_angle_l	subtalar_angle_l	mtp_angle_l	lumbar_extension	lumbar_bending	lumbar_rotation	arm_flex_r	arm_add_r	arm_rot_r	elbow_flex_r	pro_sup_r	arm_flex_l	arm_add_l	arm_rot_l	elbow_flex_l	pro_sup_l
      0.57200000	     -0.49681169	     -8.71407701	      2.06336087	     -2.55418309	      1.04235325	      0.14332207	     52.88161864	      5.64244407	    -11.89674301	     83.68155062	      1.46051858	     -4.04193626	    -17.02183939	    -11.12078656	    -28.38875297	     -5.34142813	     -2.98716610	     13.55329815	      0.23654968	    -22.48467125	      3.42611943	    -29.38254493	    -10.92932077	     10.25991478	    -11.05489088	    -58.42815959	    -22.48779566	     -5.17849907	     88.65905466	     90.00021046	     -5.01275696	    -16.13978789	     -3.25956083	    135.00067304	     90.00021046
      0.57600000	     -0.67108735	     -8.75862401	      1.83554250	     -2.53212483	      1.04429822	      0.14406306	     52.84134142	      5.81441728	    -11.92978805	     80.92295345	      1.41237198	     -3.83924703	    -16.45164011	    -11.19060504	    -29.12738184	     -5.37489342	     -3.65716752	     13.06597420	      0.22804427	    -24.21916205	      3.40904824	    -22.98850737	    -10.50373391	     10.28347426	    -11.03768025	    -59.69188220	    -22.30432718	     -5.61879873	     89.07938727	     90.00021046	     -5.01004408	    -16.09223064	     -3.05902958	    136.76942386	     90.00021046
      0.58000000	     -0.88559896	     -8.86600724	      1.60530796	     -2.51006572	      1.04608504	      0.14496387	     52.73380771	      6.10282005	    -11.99355862	     77.98226270	      1.36104724	     -3.91427396	    -16.02504350	    -12.48789548	    -29.75543925	     -5.46706137	     -4.23947778	     12.80070547	      0.22341446	    -25.32274934	      3.12856317	    -14.43279714	    -10.01643696	     10.36261200	    -10.96500708	    -60.93450109	    -22.04363937	     -6.07720669	     89.48875836	     90.00021046	     -4.95373304	    -15.99995303	     -2.92341489	    138.36654690	     90.00021046
      0.58400000	     -1.21408379	     -8.89951392	      1.29923282	     -2.48805463	      1.04747682	      0.14594073	     52.68298279	      6.40376254	    -11.94218686	     75.00433468	      1.30907259	     -3.97600551	    -15.51464146	    -13.65986181	    -30.16884632	     -5.44338904	     -4.79538861	     12.75909445	      0.22268821	    -26.26028579	      2.70271268	     -9.12898334	     -9.44687661	     10.35248759	    -10.84694155	    -62.12363094	    -21.78999325	     -6.53946341	     89.89117685	     90.00021046	     -5.03331184	    -15.94242539	     -2.71226052	    139.94105386	     90.00021046
      0.58800000	     -1.41049882	     -8.87751057	      1.18711768	     -2.46634324	      1.04895648	      0.14649239	     52.41860402	      6.51061339	    -11.94510910	     71.95938996	      1.25592828	     -3.90122305	    -14.97414741	    -13.92739616	    -30.55596726	     -5.41231457	     -4.89270977	     13.01218621	      0.22710549	    -27.13564526	      1.96187768	     -6.40312478	     -9.04023151	     10.32567821	    -10.89839734	    -63.17738309	    -21.51999003	     -6.97291224	     90.27088063	     90.00021046	     -5.06316940	    -15.91554615	     -2.64161714	    141.35404662	     90.00021046
      0.59200000	     -1.60617856	     -8.72091016	      1.05154829	     -2.44472524	      1.05035751	      0.14689245	     52.06829142	      6.54036783	    -11.82915132	     68.83900278	      1.20146725	     -3.81410411	    -14.25644057	    -14.90550311	    -30.80545479	     -5.21839955	     -4.74973152	     13.54008442	      0.23631905	    -27.64327046	      0.90021795	     -3.93152020	     -8.64816851	     10.16174956	    -10.87912025	    -64.17868382	    -21.20147385	     -7.41845296	     90.63940968	     90.00021046	     -5.10193643	    -15.86019483	     -2.30762933	    142.69278688	     90.00021046
      0.59600000	     -1.75740553	     -8.59222440	      0.98795680	     -2.42310725	      1.05169840	      0.14729288	     51.58886595	      6.59849202	    -11.68799695	     65.61853811	      1.14525954	     -3.78912420	    -13.54656925	    -15.17712109	    -30.97217999	     -5.08970099	     -4.51093663	     14.37905883	      0.25096192	    -27.89947555	     -0.30125155	     -2.82196152	     -8.29803414	     10.03209863	    -10.90373292	    -65.08320227	    -20.83671941	     -7.86889925	     90.97769157	     90.00021046	     -5.12948004	    -15.81646841	     -2.15989020	    143.79780589	     90.00021046
      0.60000000	     -1.87575680	     -8.48192614	      0.90954522	     -2.40145249	      1.05304458	      0.14779501	     50.96130851	      6.73521119	    -11.48388703	     62.24547886	      1.08638855	     -3.78542274	    -12.80608824	    -16.01781931	    -31.12367307	     -4.99047918	     -4.28067297	     15.35030096	      0.26791329	    -27.73474951	     -1.17508126	     -3.81194733	     -8.00815554	      9.89693602	    -10.93900245	    -65.85881647	    -20.56286785	     -8.21389670	     91.23021737	     90.00021046	     -5.27654962	    -15.74101017	     -2.06067198	    144.77637478	     90.00021046
      0.60400000	     -1.89607667	     -8.42681574	      0.89103038	     -2.37978091	      1.05442894	      0.14837231	     50.13024444	      6.92034278	    -11.31029027	     58.77444090	      1.02580751	     -3.69194478	    -12.10757216	    -16.24473006	    -31.29583447	     -4.97552616	     -4.00783950	     16.52144908	      0.28835368	    -27.06281223	     -1.84082004	     -4.72577764	     -7.80726686	      9.80728496	    -10.93364739	    -66.56076672	    -20.20315479	     -8.55778409	     91.45202101	     90.00021046	     -5.46092997	    -15.71620190	     -1.76990156	    145.61011173	     90.00021046
      0.60800000	     -1.73178270	     -8.41658720	      0.89175801	     -2.35809744	      1.05592950	      0.14893992	     49.00980584	      7.15885516	    -11.15565012	     55.16175248	      0.96275420	     -3.68939340	    -11.34136302	    -16.49730518	    -31.57625680	     -5.03239839	     -3.89418844	     17.84177672	      0.31139775	    -26.54462214	     -2.56674017	     -6.08807086	     -7.87383845	      9.77118082	    -10.91755890	    -67.12568409	    -19.84524841	     -8.89455494	     91.66670451	     90.00021046	     -5.70403378	    -15.68280202	     -1.58503078	    146.42259843	     90.00021046
      0.61200000	     -1.67271560	     -8.47838141	      1.16870912	     -2.33664982	      1.05729549	      0.14955884	     47.89563104	      7.30007358	    -11.21519211	     51.38375461	      0.89681570	     -3.90729261	    -10.70657856	    -17.83134967	    -31.70261061	     -5.26057330	     -3.03368334	     19.19452126	      0.33500759	    -25.77850225	     -3.49377980	     -6.71235543	     -7.77954590	      9.78364108	    -11.17501817	    -67.51388227	    -19.47610025	     -9.09311008	     91.77279833	     90.00021046	     -5.88700438	    -15.74386205	     -1.45090134	    146.85252823	     90.00021046
